<svg width="187" height="74" viewBox="0 0 187 74" fill="none" xmlns="http://www.w3.org/2000/svg">
<mask id="path-1-outside-1_67_6" maskUnits="userSpaceOnUse" x="-3" y="-3" width="193" height="80" fill="black">
<rect fill="white" x="-3" y="-3" width="193" height="80"/>
<path d="M0.0130999 25.964C0.0130999 18.2654 4.1081 11.1674 12.2981 4.67L27.2858 14.6618C20.5154 18.9206 17.1302 23.4251 17.1302 28.1753C17.1302 30.1955 17.8127 32.3249 19.1777 34.5635C20.5427 36.8021 21.9077 39.0134 23.2727 41.1974C24.6923 43.3814 25.4021 45.4289 25.4021 47.3399C25.4021 55.2569 19.9421 61.3721 9.0221 65.6855L5.0909 60.362C7.7663 58.8878 9.6227 57.4682 10.6601 56.1032C11.6975 54.7382 12.2162 53.2367 12.2162 51.5987C12.2162 49.9607 11.561 48.1316 10.2506 46.1114C8.9948 44.0366 7.6025 42.1529 6.0737 40.4603C4.5995 38.7677 3.2072 36.611 1.8968 33.9902C0.641 31.3694 0.0130999 28.694 0.0130999 25.964ZM33.3189 63.8837C32.3907 63.8837 31.7082 63.8564 31.2714 63.8018C29.415 62.546 27.9135 60.6896 26.7669 58.2326C25.6749 55.721 25.1289 53.1275 25.1289 50.4521C25.1289 46.9577 26.4393 44.4188 29.0601 42.8354C31.7355 41.252 36.6222 40.4603 43.7202 40.4603C46.341 40.4603 49.071 40.6514 51.9102 41.0336L51.7464 39.2318C51.528 37.0478 50.4906 35.3279 48.6342 34.0721C46.7778 32.7617 44.4027 32.1065 41.5089 32.1065C38.6151 32.1065 35.7213 33.0074 32.8275 34.8092L29.2239 22.9337C33.9195 21.0227 39.2703 20.0672 45.2763 20.0672C51.2823 20.0672 56.0325 21.4322 59.5269 24.1622C63.0213 26.8376 64.7685 31.0418 64.7685 36.7748C64.7685 38.0852 64.7139 39.1226 64.6047 39.887L62.3115 62.4914L54.2034 63.2285L52.9749 51.353H52.3197C50.4633 55.2842 47.8971 58.3691 44.6211 60.6077C41.3451 62.7917 37.5777 63.8837 33.3189 63.8837ZM52.2378 44.4734L47.8971 44.3915C44.2935 44.3915 41.3451 44.5826 39.0519 44.9648C38.2875 46.4936 37.9053 47.8586 37.9053 49.0598C37.9053 50.261 38.0691 51.4076 38.3967 52.4996C38.7243 53.5916 39.0792 54.3287 39.4614 54.7109C46.0134 53.6735 50.2722 50.261 52.2378 44.4734ZM69.0337 13.5971C67.5595 12.0683 66.8224 10.2665 66.8224 8.1917C66.8224 6.1169 67.5595 4.3424 69.0337 2.8682C70.5625 1.3394 72.3643 0.575 74.4391 0.575C76.5139 0.575 78.2884 1.3394 79.7626 2.8682C81.2914 4.3424 82.0558 6.1169 82.0558 8.1917C82.0558 10.2665 81.2914 12.0683 79.7626 13.5971C78.2884 15.0713 76.5139 15.8084 74.4391 15.8084C72.3643 15.8084 70.5625 15.0713 69.0337 13.5971ZM66.331 73.0565C62.8366 73.0565 59.5606 71.828 56.503 69.371L58.96 65.1941C60.598 66.3407 62.4271 66.914 64.4473 66.914C68.3239 66.914 70.2622 64.5116 70.2622 59.7068C70.2622 59.1608 69.0064 46.8212 66.4948 22.688L84.0214 20.0672L78.7798 62.4095C77.9062 69.5075 73.7566 73.0565 66.331 73.0565ZM91.7622 63.8837C90.834 63.8837 90.1515 63.8564 89.7147 63.8018C87.8583 62.546 86.3568 60.6896 85.2102 58.2326C84.1182 55.721 83.5722 53.1275 83.5722 50.4521C83.5722 46.9577 84.8826 44.4188 87.5034 42.8354C90.1788 41.252 95.0655 40.4603 102.164 40.4603C104.784 40.4603 107.514 40.6514 110.354 41.0336L110.19 39.2318C109.971 37.0478 108.934 35.3279 107.078 34.0721C105.221 32.7617 102.846 32.1065 99.9522 32.1065C97.0584 32.1065 94.1646 33.0074 91.2708 34.8092L87.6672 22.9337C92.3628 21.0227 97.7136 20.0672 103.72 20.0672C109.726 20.0672 114.476 21.4322 117.97 24.1622C121.465 26.8376 123.212 31.0418 123.212 36.7748C123.212 38.0852 123.157 39.1226 123.048 39.887L120.755 62.4914L112.647 63.2285L111.418 51.353H110.763C108.907 55.2842 106.34 58.3691 103.064 60.6077C99.7884 62.7917 96.021 63.8837 91.7622 63.8837ZM110.681 44.4734L106.34 44.3915C102.737 44.3915 99.7884 44.5826 97.4952 44.9648C96.7308 46.4936 96.3486 47.8586 96.3486 49.0598C96.3486 50.261 96.5124 51.4076 96.84 52.4996C97.1676 53.5916 97.5225 54.3287 97.9047 54.7109C104.457 53.6735 108.716 50.261 110.681 44.4734ZM135.995 63.8837C134.684 63.8837 133.592 63.6653 132.719 63.2285C130.698 61.1537 129.06 58.0688 127.805 53.9738C126.603 49.8788 126.003 45.3197 126.003 40.2965C126.003 33.7991 127.259 29.0216 129.77 25.964C132.336 22.9064 136.759 21.3776 143.038 21.3776C146.915 21.3776 150.764 22.142 154.586 23.6708L153.357 6.0623L170.884 3.3596L165.642 62.4914L157.534 63.2285L156.47 49.1417H155.814C151.61 58.9697 145.004 63.8837 135.995 63.8837ZM146.232 26.2916C144.212 26.2916 142.492 26.6738 141.072 27.4382C140.308 31.3694 139.926 35.4371 139.926 39.6413C139.926 48.3773 140.472 54.2468 141.564 57.2498C144.239 56.813 147.051 54.9293 150 51.5987C151.528 49.8515 152.784 47.3672 153.767 44.1458C154.804 40.9244 155.323 37.2389 155.323 33.0893C155.323 32.2703 155.268 30.9872 155.159 29.24C152.702 27.2744 149.727 26.2916 146.232 26.2916ZM173.519 60.8534C172.318 59.4884 171.717 57.7412 171.717 55.6118C171.717 53.4824 172.318 51.7625 173.519 50.4521C174.775 49.0871 176.713 48.4046 179.334 48.4046C181.955 48.4046 183.866 49.0871 185.067 50.4521C186.323 51.7625 186.95 53.4824 186.95 55.6118C186.95 57.7412 186.323 59.4884 185.067 60.8534C183.866 62.1638 181.955 62.819 179.334 62.819C176.713 62.819 174.775 62.1638 173.519 60.8534Z"/>
</mask>
<path d="M0.0130999 25.964C0.0130999 18.2654 4.1081 11.1674 12.2981 4.67L27.2858 14.6618C20.5154 18.9206 17.1302 23.4251 17.1302 28.1753C17.1302 30.1955 17.8127 32.3249 19.1777 34.5635C20.5427 36.8021 21.9077 39.0134 23.2727 41.1974C24.6923 43.3814 25.4021 45.4289 25.4021 47.3399C25.4021 55.2569 19.9421 61.3721 9.0221 65.6855L5.0909 60.362C7.7663 58.8878 9.6227 57.4682 10.6601 56.1032C11.6975 54.7382 12.2162 53.2367 12.2162 51.5987C12.2162 49.9607 11.561 48.1316 10.2506 46.1114C8.9948 44.0366 7.6025 42.1529 6.0737 40.4603C4.5995 38.7677 3.2072 36.611 1.8968 33.9902C0.641 31.3694 0.0130999 28.694 0.0130999 25.964ZM33.3189 63.8837C32.3907 63.8837 31.7082 63.8564 31.2714 63.8018C29.415 62.546 27.9135 60.6896 26.7669 58.2326C25.6749 55.721 25.1289 53.1275 25.1289 50.4521C25.1289 46.9577 26.4393 44.4188 29.0601 42.8354C31.7355 41.252 36.6222 40.4603 43.7202 40.4603C46.341 40.4603 49.071 40.6514 51.9102 41.0336L51.7464 39.2318C51.528 37.0478 50.4906 35.3279 48.6342 34.0721C46.7778 32.7617 44.4027 32.1065 41.5089 32.1065C38.6151 32.1065 35.7213 33.0074 32.8275 34.8092L29.2239 22.9337C33.9195 21.0227 39.2703 20.0672 45.2763 20.0672C51.2823 20.0672 56.0325 21.4322 59.5269 24.1622C63.0213 26.8376 64.7685 31.0418 64.7685 36.7748C64.7685 38.0852 64.7139 39.1226 64.6047 39.887L62.3115 62.4914L54.2034 63.2285L52.9749 51.353H52.3197C50.4633 55.2842 47.8971 58.3691 44.6211 60.6077C41.3451 62.7917 37.5777 63.8837 33.3189 63.8837ZM52.2378 44.4734L47.8971 44.3915C44.2935 44.3915 41.3451 44.5826 39.0519 44.9648C38.2875 46.4936 37.9053 47.8586 37.9053 49.0598C37.9053 50.261 38.0691 51.4076 38.3967 52.4996C38.7243 53.5916 39.0792 54.3287 39.4614 54.7109C46.0134 53.6735 50.2722 50.261 52.2378 44.4734ZM69.0337 13.5971C67.5595 12.0683 66.8224 10.2665 66.8224 8.1917C66.8224 6.1169 67.5595 4.3424 69.0337 2.8682C70.5625 1.3394 72.3643 0.575 74.4391 0.575C76.5139 0.575 78.2884 1.3394 79.7626 2.8682C81.2914 4.3424 82.0558 6.1169 82.0558 8.1917C82.0558 10.2665 81.2914 12.0683 79.7626 13.5971C78.2884 15.0713 76.5139 15.8084 74.4391 15.8084C72.3643 15.8084 70.5625 15.0713 69.0337 13.5971ZM66.331 73.0565C62.8366 73.0565 59.5606 71.828 56.503 69.371L58.96 65.1941C60.598 66.3407 62.4271 66.914 64.4473 66.914C68.3239 66.914 70.2622 64.5116 70.2622 59.7068C70.2622 59.1608 69.0064 46.8212 66.4948 22.688L84.0214 20.0672L78.7798 62.4095C77.9062 69.5075 73.7566 73.0565 66.331 73.0565ZM91.7622 63.8837C90.834 63.8837 90.1515 63.8564 89.7147 63.8018C87.8583 62.546 86.3568 60.6896 85.2102 58.2326C84.1182 55.721 83.5722 53.1275 83.5722 50.4521C83.5722 46.9577 84.8826 44.4188 87.5034 42.8354C90.1788 41.252 95.0655 40.4603 102.164 40.4603C104.784 40.4603 107.514 40.6514 110.354 41.0336L110.19 39.2318C109.971 37.0478 108.934 35.3279 107.078 34.0721C105.221 32.7617 102.846 32.1065 99.9522 32.1065C97.0584 32.1065 94.1646 33.0074 91.2708 34.8092L87.6672 22.9337C92.3628 21.0227 97.7136 20.0672 103.72 20.0672C109.726 20.0672 114.476 21.4322 117.97 24.1622C121.465 26.8376 123.212 31.0418 123.212 36.7748C123.212 38.0852 123.157 39.1226 123.048 39.887L120.755 62.4914L112.647 63.2285L111.418 51.353H110.763C108.907 55.2842 106.34 58.3691 103.064 60.6077C99.7884 62.7917 96.021 63.8837 91.7622 63.8837ZM110.681 44.4734L106.34 44.3915C102.737 44.3915 99.7884 44.5826 97.4952 44.9648C96.7308 46.4936 96.3486 47.8586 96.3486 49.0598C96.3486 50.261 96.5124 51.4076 96.84 52.4996C97.1676 53.5916 97.5225 54.3287 97.9047 54.7109C104.457 53.6735 108.716 50.261 110.681 44.4734ZM135.995 63.8837C134.684 63.8837 133.592 63.6653 132.719 63.2285C130.698 61.1537 129.06 58.0688 127.805 53.9738C126.603 49.8788 126.003 45.3197 126.003 40.2965C126.003 33.7991 127.259 29.0216 129.77 25.964C132.336 22.9064 136.759 21.3776 143.038 21.3776C146.915 21.3776 150.764 22.142 154.586 23.6708L153.357 6.0623L170.884 3.3596L165.642 62.4914L157.534 63.2285L156.47 49.1417H155.814C151.61 58.9697 145.004 63.8837 135.995 63.8837ZM146.232 26.2916C144.212 26.2916 142.492 26.6738 141.072 27.4382C140.308 31.3694 139.926 35.4371 139.926 39.6413C139.926 48.3773 140.472 54.2468 141.564 57.2498C144.239 56.813 147.051 54.9293 150 51.5987C151.528 49.8515 152.784 47.3672 153.767 44.1458C154.804 40.9244 155.323 37.2389 155.323 33.0893C155.323 32.2703 155.268 30.9872 155.159 29.24C152.702 27.2744 149.727 26.2916 146.232 26.2916ZM173.519 60.8534C172.318 59.4884 171.717 57.7412 171.717 55.6118C171.717 53.4824 172.318 51.7625 173.519 50.4521C174.775 49.0871 176.713 48.4046 179.334 48.4046C181.955 48.4046 183.866 49.0871 185.067 50.4521C186.323 51.7625 186.95 53.4824 186.95 55.6118C186.95 57.7412 186.323 59.4884 185.067 60.8534C183.866 62.1638 181.955 62.819 179.334 62.819C176.713 62.819 174.775 62.1638 173.519 60.8534Z" fill="white"/>
<path d="M12.2981 4.67L13.9622 2.17385L12.1448 0.962229L10.4336 2.31977L12.2981 4.67ZM27.2858 14.6618L28.8832 17.2012L32.8038 14.7349L28.9499 12.1657L27.2858 14.6618ZM23.2727 41.1974L20.7287 42.7874L20.7428 42.81L20.7574 42.8324L23.2727 41.1974ZM9.0221 65.6855L6.6088 67.4676L7.97898 69.3231L10.1242 68.4757L9.0221 65.6855ZM5.0909 60.362L3.64309 57.7345L0.642293 59.388L2.6776 62.1441L5.0909 60.362ZM10.6601 56.1032L8.27161 54.2879H8.27161L10.6601 56.1032ZM10.2506 46.1114L7.6841 47.6648L7.70829 47.7048L7.73372 47.744L10.2506 46.1114ZM6.0737 40.4603L3.81146 42.4306L3.82924 42.4511L3.84739 42.4712L6.0737 40.4603ZM1.8968 33.9902L-0.808648 35.2866L-0.797755 35.3093L-0.786482 35.3318L1.8968 33.9902ZM3.0131 25.964C3.0131 19.4814 6.41608 13.1658 14.1626 7.02023L10.4336 2.31977C1.80012 9.16899 -2.9869 17.0494 -2.9869 25.964H3.0131ZM10.634 7.16615L25.6217 17.158L28.9499 12.1657L13.9622 2.17385L10.634 7.16615ZM25.6884 12.1224C18.6525 16.5483 14.1302 21.8377 14.1302 28.1753H20.1302C20.1302 25.0125 22.3783 21.2929 28.8832 17.2012L25.6884 12.1224ZM14.1302 28.1753C14.1302 30.8879 15.0482 33.5537 16.6163 36.1253L21.7391 33.0017C20.5772 31.0961 20.1302 29.5031 20.1302 28.1753H14.1302ZM16.6163 36.1253C17.987 38.3732 19.3577 40.5939 20.7287 42.7874L25.8167 39.6074C24.4576 37.4329 23.0984 35.231 21.7391 33.0017L16.6163 36.1253ZM20.7574 42.8324C21.9721 44.7011 22.4021 46.1845 22.4021 47.3399H28.4021C28.4021 44.6733 27.4125 42.0617 25.788 39.5624L20.7574 42.8324ZM22.4021 47.3399C22.4021 53.4524 18.342 58.7786 7.91996 62.8953L10.1242 68.4757C21.5422 63.9656 28.4021 57.0614 28.4021 47.3399H22.4021ZM11.4354 63.9034L7.5042 58.5799L2.6776 62.1441L6.6088 67.4676L11.4354 63.9034ZM6.53871 62.9895C9.33838 61.4468 11.6315 59.7831 13.0486 57.9184L8.27161 54.2879C7.61395 55.1533 6.19422 56.3288 3.64309 57.7345L6.53871 62.9895ZM13.0486 57.9184C14.4629 56.0576 15.2162 53.9244 15.2162 51.5987H9.2162C9.2162 52.549 8.93214 53.4188 8.27161 54.2879L13.0486 57.9184ZM15.2162 51.5987C15.2162 49.169 14.2534 46.7697 12.7675 44.4788L7.73372 47.744C8.86857 49.4935 9.2162 50.7524 9.2162 51.5987H15.2162ZM12.8171 44.558C11.4689 42.3305 9.96424 40.292 8.30001 38.4494L3.84739 42.4712C5.24076 44.0138 6.52073 45.7427 7.6841 47.6648L12.8171 44.558ZM8.33594 38.49C7.0697 37.0361 5.80961 35.1076 4.58008 32.6486L-0.786482 35.3318C0.60479 38.1144 2.1293 40.4993 3.81146 42.4306L8.33594 38.49ZM4.60225 32.6938C3.52756 30.451 3.0131 28.2166 3.0131 25.964H-2.9869C-2.9869 29.1714 -2.24556 32.2878 -0.808648 35.2866L4.60225 32.6938ZM31.2714 63.8018L29.5905 66.2867L30.1859 66.6895L30.8993 66.7786L31.2714 63.8018ZM26.7669 58.2326L24.0157 59.4288L24.0315 59.4652L24.0483 59.5013L26.7669 58.2326ZM29.0601 42.8354L27.5321 40.2537L27.5204 40.2606L27.5087 40.2677L29.0601 42.8354ZM51.9102 41.0336L51.5099 44.0068L55.2385 44.5087L54.8979 40.762L51.9102 41.0336ZM51.7464 39.2318L54.7341 38.9602L54.7328 38.9467L54.7315 38.9333L51.7464 39.2318ZM48.6342 34.0721L46.9041 36.523L46.9285 36.5402L46.9533 36.5569L48.6342 34.0721ZM32.8275 34.8092L29.9567 35.6803L31.0926 39.4234L34.4132 37.3559L32.8275 34.8092ZM29.2239 22.9337L28.093 20.155L25.5586 21.1865L26.3531 23.8048L29.2239 22.9337ZM59.5269 24.1622L57.68 26.5263L57.6915 26.5353L57.7032 26.5442L59.5269 24.1622ZM64.6047 39.887L61.6348 39.4627L61.6262 39.5233L61.62 39.5842L64.6047 39.887ZM62.3115 62.4914L62.5831 65.4791L65.0465 65.2551L65.2962 62.7942L62.3115 62.4914ZM54.2034 63.2285L51.2193 63.5372L51.5242 66.4844L54.475 66.2162L54.2034 63.2285ZM52.9749 51.353L55.959 51.0443L55.6806 48.353H52.9749V51.353ZM52.3197 51.353V48.353H50.4187L49.6069 50.072L52.3197 51.353ZM44.6211 60.6077L46.2852 63.1039L46.2995 63.0943L46.3137 63.0846L44.6211 60.6077ZM52.2378 44.4734L55.0784 45.4381L56.3985 41.5514L52.2944 41.4739L52.2378 44.4734ZM47.8971 44.3915L47.9537 41.392L47.9254 41.3915H47.8971V44.3915ZM39.0519 44.9648L38.5587 42.0056L37.0518 42.2568L36.3686 43.6232L39.0519 44.9648ZM39.4614 54.7109L37.3401 56.8322L38.4209 57.913L39.9305 57.674L39.4614 54.7109ZM33.3189 60.8837C32.4103 60.8837 31.8843 60.8551 31.6435 60.825L30.8993 66.7786C31.5321 66.8577 32.3711 66.8837 33.3189 66.8837V60.8837ZM32.9523 61.3169C31.6313 60.4233 30.4508 59.0325 29.4854 56.9639L24.0483 59.5013C25.3762 62.3467 27.1987 64.6687 29.5905 66.2867L32.9523 61.3169ZM29.5181 57.0364C28.5862 54.8931 28.1289 52.706 28.1289 50.4521H22.1289C22.1289 53.549 22.7636 56.5489 24.0157 59.4288L29.5181 57.0364ZM28.1289 50.4521C28.1289 47.8318 29.0311 46.3579 30.6114 45.4031L27.5087 40.2677C23.8474 42.4797 22.1289 46.0836 22.1289 50.4521H28.1289ZM30.588 45.4171C31.4692 44.8956 32.9449 44.3827 35.2114 44.0155C37.4444 43.6537 40.2692 43.4603 43.7202 43.4603V37.4603C40.0732 37.4603 36.9056 37.6628 34.2519 38.0927C31.6318 38.5172 29.3264 39.1918 27.5321 40.2537L30.588 45.4171ZM43.7202 43.4603C46.1954 43.4603 48.7913 43.6408 51.5099 44.0068L52.3104 38.0604C49.3507 37.662 46.4865 37.4603 43.7202 37.4603V43.4603ZM54.8979 40.762L54.7341 38.9602L48.7587 39.5034L48.9225 41.3052L54.8979 40.762ZM54.7315 38.9333C54.4223 35.8416 52.8912 33.3299 50.3151 31.5872L46.9533 36.5569C48.0899 37.3259 48.6336 38.254 48.7613 39.5303L54.7315 38.9333ZM50.3642 31.6212C47.8787 29.8667 44.8525 29.1065 41.5089 29.1065V35.1065C43.9529 35.1065 45.6768 35.6567 46.9041 36.523L50.3642 31.6212ZM41.5089 29.1065C37.9614 29.1065 34.5256 30.2179 31.2418 32.2625L34.4132 37.3559C36.917 35.7969 39.2688 35.1065 41.5089 35.1065V29.1065ZM35.6982 33.9381L32.0946 22.0626L26.3531 23.8048L29.9567 35.6803L35.6982 33.9381ZM30.3548 25.7124C34.6314 23.9719 39.5877 23.0672 45.2763 23.0672V17.0672C38.9529 17.0672 33.2076 18.0735 28.093 20.155L30.3548 25.7124ZM45.2763 23.0672C50.8484 23.0672 54.8726 24.333 57.68 26.5263L61.3738 21.7981C57.1924 18.5314 51.7162 17.0672 45.2763 17.0672V23.0672ZM57.7032 26.5442C60.2417 28.4878 61.7685 31.6677 61.7685 36.7748H67.7685C67.7685 30.4159 65.8008 25.1874 61.3506 21.7802L57.7032 26.5442ZM61.7685 36.7748C61.7685 38.0264 61.7149 38.9023 61.6348 39.4627L67.5745 40.3113C67.7129 39.3429 67.7685 38.144 67.7685 36.7748H61.7685ZM61.62 39.5842L59.3268 62.1886L65.2962 62.7942L67.5894 40.1898L61.62 39.5842ZM62.0399 59.5037L53.9318 60.2408L54.475 66.2162L62.5831 65.4791L62.0399 59.5037ZM57.1875 62.9198L55.959 51.0443L49.9908 51.6617L51.2193 63.5372L57.1875 62.9198ZM52.9749 48.353H52.3197V54.353H52.9749V48.353ZM49.6069 50.072C47.9558 53.5685 45.7228 56.2214 42.9285 58.1308L46.3137 63.0846C50.0714 60.5168 52.9707 56.9999 55.0324 52.634L49.6069 50.072ZM42.957 58.1115C40.2143 59.94 37.036 60.8837 33.3189 60.8837V66.8837C38.1193 66.8837 42.4759 65.6434 46.2852 63.1039L42.957 58.1115ZM52.2944 41.4739L47.9537 41.392L47.8405 47.391L52.1812 47.4729L52.2944 41.4739ZM47.8971 41.3915C44.2076 41.3915 41.0779 41.5857 38.5587 42.0056L39.5451 47.924C41.6122 47.5795 44.3794 47.3915 47.8971 47.3915V41.3915ZM36.3686 43.6232C35.4782 45.404 34.9053 47.2384 34.9053 49.0598H40.9053C40.9053 48.4788 41.0968 47.5832 41.7352 46.3064L36.3686 43.6232ZM34.9053 49.0598C34.9053 50.5373 35.1073 51.9753 35.5232 53.3616L41.2702 51.6376C41.0309 50.8399 40.9053 49.9847 40.9053 49.0598H34.9053ZM35.5232 53.3616C35.8684 54.5122 36.392 55.8842 37.3401 56.8322L41.5827 52.5896C41.7196 52.7265 41.7099 52.7743 41.6116 52.57C41.5231 52.3862 41.4049 52.0867 41.2702 51.6376L35.5232 53.3616ZM39.9305 57.674C43.611 57.0912 46.8299 55.8104 49.4454 53.7146C52.0732 51.609 53.9345 48.8063 55.0784 45.4381L49.3971 43.5087C48.5754 45.9281 47.3246 47.7254 45.6936 49.0323C44.0503 50.349 41.8638 51.2932 38.9922 51.7478L39.9305 57.674ZM69.0337 13.5971L66.8741 15.6795L66.912 15.7188L66.9513 15.7566L69.0337 13.5971ZM69.0337 2.8682L66.9124 0.74688L69.0337 2.8682ZM79.7626 2.8682L77.603 4.95061L77.6409 4.98987L77.6802 5.02773L79.7626 2.8682ZM79.7626 13.5971L77.6413 11.4758V11.4758L79.7626 13.5971ZM56.503 69.371L53.9172 67.8499L52.6024 70.0851L54.6238 71.7095L56.503 69.371ZM58.96 65.1941L60.6804 62.7364L58.0204 60.8744L56.3742 63.673L58.96 65.1941ZM66.4948 22.688L66.0511 19.721L63.2139 20.1452L63.5109 22.9985L66.4948 22.688ZM84.0214 20.0672L86.9986 20.4358L87.4839 16.5161L83.5777 17.1002L84.0214 20.0672ZM78.7798 62.4095L75.8025 62.0409L75.8022 62.043L78.7798 62.4095ZM71.1932 11.5147C70.244 10.5303 69.8224 9.46954 69.8224 8.1917H63.8224C63.8224 11.0635 64.8749 13.6063 66.8741 15.6795L71.1932 11.5147ZM69.8224 8.1917C69.8224 6.91687 70.2403 5.90417 71.155 4.98952L66.9124 0.74688C64.8786 2.78063 63.8224 5.31693 63.8224 8.1917H69.8224ZM71.155 4.98952C72.1476 3.99695 73.1965 3.575 74.4391 3.575V-2.425C71.5321 -2.425 68.9774 -1.31815 66.9124 0.74688L71.155 4.98952ZM74.4391 3.575C75.6779 3.575 76.6792 3.99257 77.603 4.95061L81.9221 0.785793C79.8975 -1.31377 77.3499 -2.425 74.4391 -2.425V3.575ZM77.6802 5.02773C78.6382 5.95156 79.0558 6.95289 79.0558 8.1917H85.0558C85.0558 5.28091 83.9445 2.73324 81.845 0.708666L77.6802 5.02773ZM79.0558 8.1917C79.0558 9.4343 78.6338 10.4832 77.6413 11.4758L81.8839 15.7184C83.9489 13.6534 85.0558 11.0987 85.0558 8.1917H79.0558ZM77.6413 11.4758C76.7266 12.3904 75.7139 12.8084 74.4391 12.8084V18.8084C77.3139 18.8084 79.8502 17.7522 81.8839 15.7184L77.6413 11.4758ZM74.4391 12.8084C73.1612 12.8084 72.1004 12.3868 71.1161 11.4376L66.9513 15.7566C69.0245 17.7558 71.5673 18.8084 74.4391 18.8084V12.8084ZM66.331 70.0565C63.6037 70.0565 60.9761 69.1169 58.3822 67.0325L54.6238 71.7095C58.1451 74.5391 62.0695 76.0565 66.331 76.0565V70.0565ZM59.0888 70.8921L61.5458 66.7152L56.3742 63.673L53.9172 67.8499L59.0888 70.8921ZM57.2396 67.6518C59.3874 69.1553 61.8184 69.914 64.4473 69.914V63.914C63.0358 63.914 61.8085 63.5261 60.6804 62.7364L57.2396 67.6518ZM64.4473 69.914C67.0389 69.914 69.4624 69.0793 71.1433 66.996C72.7248 65.0358 73.2622 62.4342 73.2622 59.7068H67.2622C67.2622 61.7842 66.8304 62.7862 66.4736 63.2284C66.2162 63.5475 65.7322 63.914 64.4473 63.914V69.914ZM73.2622 59.7068C73.2622 59.4657 73.2225 59.0286 73.1913 58.6808C73.151 58.2327 73.0913 57.6027 73.0126 56.795C72.855 55.1778 72.619 52.8249 72.3049 49.7389C71.6767 43.5656 70.7345 34.4446 69.4787 22.3775L63.5109 22.9985C64.7666 35.0646 65.7082 44.18 66.3357 50.3463C66.6496 53.4301 66.8845 55.7728 67.0409 57.377C67.1191 58.18 67.1771 58.7922 67.2153 59.2177C67.2626 59.7435 67.2622 59.8114 67.2622 59.7068H73.2622ZM66.9384 25.655L84.465 23.0342L83.5777 17.1002L66.0511 19.721L66.9384 25.655ZM81.0441 19.6986L75.8025 62.0409L81.7571 62.7781L86.9986 20.4358L81.0441 19.6986ZM75.8022 62.043C75.4279 65.0846 74.4096 66.9628 73.0625 68.1149C71.6994 69.2806 69.5868 70.0565 66.331 70.0565V76.0565C70.5007 76.0565 74.1758 75.0579 76.9623 72.6746C79.7648 70.2777 81.2581 66.8324 81.7573 62.776L75.8022 62.043ZM89.7147 63.8018L88.0338 66.2867L88.6292 66.6895L89.3426 66.7786L89.7147 63.8018ZM85.2102 58.2326L82.459 59.4288L82.4749 59.4652L82.4917 59.5013L85.2102 58.2326ZM87.5034 42.8354L85.9754 40.2537L85.9637 40.2606L85.9521 40.2677L87.5034 42.8354ZM110.354 41.0336L109.953 44.0068L113.682 44.5087L113.341 40.762L110.354 41.0336ZM110.19 39.2318L113.177 38.9602L113.176 38.9467L113.175 38.9333L110.19 39.2318ZM107.078 34.0721L105.347 36.523L105.372 36.5402L105.397 36.5569L107.078 34.0721ZM91.2708 34.8092L88.4001 35.6803L89.5359 39.4234L92.8565 37.3559L91.2708 34.8092ZM87.6672 22.9337L86.5363 20.155L84.0019 21.1865L84.7965 23.8048L87.6672 22.9337ZM117.97 24.1622L116.123 26.5263L116.135 26.5353L116.146 26.5442L117.97 24.1622ZM123.048 39.887L120.078 39.4627L120.07 39.5233L120.063 39.5842L123.048 39.887ZM120.755 62.4914L121.026 65.4791L123.49 65.2551L123.739 62.7942L120.755 62.4914ZM112.647 63.2285L109.663 63.5372L109.968 66.4844L112.918 66.2162L112.647 63.2285ZM111.418 51.353L114.402 51.0443L114.124 48.353H111.418V51.353ZM110.763 51.353V48.353H108.862L108.05 50.072L110.763 51.353ZM103.064 60.6077L104.729 63.1039L104.743 63.0943L104.757 63.0846L103.064 60.6077ZM110.681 44.4734L113.522 45.4381L114.842 41.5514L110.738 41.4739L110.681 44.4734ZM106.34 44.3915L106.397 41.392L106.369 41.3915H106.34V44.3915ZM97.4952 44.9648L97.002 42.0056L95.4951 42.2568L94.8119 43.6232L97.4952 44.9648ZM97.9047 54.7109L95.7834 56.8322L96.8642 57.913L98.3739 57.674L97.9047 54.7109ZM91.7622 60.8837C90.8536 60.8837 90.3276 60.8551 90.0868 60.825L89.3426 66.7786C89.9754 66.8577 90.8144 66.8837 91.7622 66.8837V60.8837ZM91.3956 61.3169C90.0746 60.4233 88.8941 59.0325 87.9288 56.9639L82.4917 59.5013C83.8195 62.3467 85.642 64.6687 88.0338 66.2867L91.3956 61.3169ZM87.9614 57.0364C87.0295 54.8931 86.5722 52.706 86.5722 50.4521H80.5722C80.5722 53.549 81.2069 56.5489 82.459 59.4288L87.9614 57.0364ZM86.5722 50.4521C86.5722 47.8318 87.4745 46.3579 89.0548 45.4031L85.9521 40.2677C82.2908 42.4797 80.5722 46.0836 80.5722 50.4521H86.5722ZM89.0314 45.4171C89.9125 44.8956 91.3882 44.3827 93.6548 44.0155C95.8877 43.6537 98.7125 43.4603 102.164 43.4603V37.4603C98.5165 37.4603 95.3489 37.6628 92.6952 38.0927C90.0751 38.5172 87.7697 39.1918 85.9754 40.2537L89.0314 45.4171ZM102.164 43.4603C104.639 43.4603 107.235 43.6408 109.953 44.0068L110.754 38.0604C107.794 37.662 104.93 37.4603 102.164 37.4603V43.4603ZM113.341 40.762L113.177 38.9602L107.202 39.5034L107.366 41.3052L113.341 40.762ZM113.175 38.9333C112.866 35.8416 111.335 33.3299 108.758 31.5872L105.397 36.5569C106.533 37.3259 107.077 38.254 107.205 39.5303L113.175 38.9333ZM108.808 31.6212C106.322 29.8667 103.296 29.1065 99.9522 29.1065V35.1065C102.396 35.1065 104.12 35.6567 105.347 36.523L108.808 31.6212ZM99.9522 29.1065C96.4047 29.1065 92.9689 30.2179 89.6851 32.2625L92.8565 37.3559C95.3603 35.7969 97.7121 35.1065 99.9522 35.1065V29.1065ZM94.1415 33.9381L90.5379 22.0626L84.7965 23.8048L88.4001 35.6803L94.1415 33.9381ZM88.7981 25.7124C93.0747 23.9719 98.031 23.0672 103.72 23.0672V17.0672C97.3962 17.0672 91.6509 18.0735 86.5363 20.155L88.7981 25.7124ZM103.72 23.0672C109.292 23.0672 113.316 24.333 116.123 26.5263L119.817 21.7981C115.636 18.5314 110.16 17.0672 103.72 17.0672V23.0672ZM116.146 26.5442C118.685 28.4878 120.212 31.6677 120.212 36.7748H126.212C126.212 30.4159 124.244 25.1874 119.794 21.7802L116.146 26.5442ZM120.212 36.7748C120.212 38.0264 120.158 38.9023 120.078 39.4627L126.018 40.3113C126.156 39.3429 126.212 38.144 126.212 36.7748H120.212ZM120.063 39.5842L117.77 62.1886L123.739 62.7942L126.033 40.1898L120.063 39.5842ZM120.483 59.5037L112.375 60.2408L112.918 66.2162L121.026 65.4791L120.483 59.5037ZM115.631 62.9198L114.402 51.0443L108.434 51.6617L109.663 63.5372L115.631 62.9198ZM111.418 48.353H110.763V54.353H111.418V48.353ZM108.05 50.072C106.399 53.5685 104.166 56.2214 101.372 58.1308L104.757 63.0846C108.515 60.5168 111.414 56.9999 113.476 52.634L108.05 50.072ZM101.4 58.1115C98.6576 59.94 95.4793 60.8837 91.7622 60.8837V66.8837C96.5627 66.8837 100.919 65.6434 104.729 63.1039L101.4 58.1115ZM110.738 41.4739L106.397 41.392L106.284 47.391L110.625 47.4729L110.738 41.4739ZM106.34 41.3915C102.651 41.3915 99.5213 41.5857 97.002 42.0056L97.9884 47.924C100.056 47.5795 102.823 47.3915 106.34 47.3915V41.3915ZM94.8119 43.6232C93.9215 45.404 93.3486 47.2384 93.3486 49.0598H99.3486C99.3486 48.4788 99.5401 47.5832 100.178 46.3064L94.8119 43.6232ZM93.3486 49.0598C93.3486 50.5373 93.5506 51.9753 93.9665 53.3616L99.7135 51.6376C99.4742 50.8399 99.3486 49.9847 99.3486 49.0598H93.3486ZM93.9665 53.3616C94.3117 54.5122 94.8353 55.8842 95.7834 56.8322L100.026 52.5896C100.163 52.7265 100.153 52.7743 100.055 52.57C99.9664 52.3862 99.8482 52.0867 99.7135 51.6376L93.9665 53.3616ZM98.3739 57.674C102.054 57.0912 105.273 55.8104 107.889 53.7146C110.516 51.609 112.378 48.8063 113.522 45.4381L107.84 43.5087C107.019 45.9281 105.768 47.7254 104.137 49.0323C102.494 50.349 100.307 51.2932 97.4356 51.7478L98.3739 57.674ZM132.719 63.2285L130.569 65.3214L130.923 65.6849L131.377 65.9118L132.719 63.2285ZM127.805 53.9738L124.926 54.8182L124.931 54.8358L124.936 54.8534L127.805 53.9738ZM129.77 25.964L127.472 24.0354L127.462 24.0475L127.452 24.0598L129.77 25.964ZM154.586 23.6708L153.472 26.4562L157.911 28.2321L157.579 23.462L154.586 23.6708ZM153.357 6.0623L152.9 3.09735L150.173 3.51796L150.365 6.2711L153.357 6.0623ZM170.884 3.3596L173.872 3.62449L174.21 -0.188791L170.427 0.394648L170.884 3.3596ZM165.642 62.4914L165.914 65.4791L168.409 65.2522L168.631 62.7563L165.642 62.4914ZM157.534 63.2285L154.543 63.4546L154.772 66.492L157.806 66.2162L157.534 63.2285ZM156.47 49.1417L159.461 48.9156L159.251 46.1417H156.47V49.1417ZM155.814 49.1417V46.1417H153.835L153.056 47.9618L155.814 49.1417ZM141.072 27.4382L139.65 24.7968L138.399 25.4706L138.128 26.8656L141.072 27.4382ZM141.564 57.2498L138.744 58.275L139.594 60.6111L142.047 60.2106L141.564 57.2498ZM150 51.5987L152.246 53.5872L152.252 53.5807L152.257 53.5742L150 51.5987ZM153.767 44.1458L150.911 43.2262L150.904 43.2482L150.897 43.2704L153.767 44.1458ZM155.159 29.24L158.153 29.0529L158.071 27.7272L157.033 26.8974L155.159 29.24ZM135.995 60.8837C134.998 60.8837 134.4 60.7151 134.06 60.5452L131.377 65.9118C132.784 66.6155 134.37 66.8837 135.995 66.8837V60.8837ZM134.868 61.1357C133.301 59.5268 131.851 56.9348 130.673 53.0942L124.936 54.8534C126.27 59.2028 128.095 62.7806 130.569 65.3214L134.868 61.1357ZM130.683 53.1294C129.575 49.3521 129.003 45.083 129.003 40.2965H123.003C123.003 45.5564 123.632 50.4055 124.926 54.8182L130.683 53.1294ZM129.003 40.2965C129.003 34.0807 130.223 30.1391 132.088 27.8682L127.452 24.0598C124.294 27.9041 123.003 33.5175 123.003 40.2965H129.003ZM132.068 27.8926C133.804 25.8245 137.139 24.3776 143.038 24.3776V18.3776C136.379 18.3776 130.869 19.9883 127.472 24.0354L132.068 27.8926ZM143.038 24.3776C146.51 24.3776 149.982 25.0603 153.472 26.4562L155.7 20.8854C151.546 19.2237 147.319 18.3776 143.038 18.3776V24.3776ZM157.579 23.462L156.35 5.85351L150.365 6.2711L151.593 23.8796L157.579 23.462ZM153.815 9.02726L171.341 6.32456L170.427 0.394648L152.9 3.09735L153.815 9.02726ZM167.896 3.09471L162.654 62.2265L168.631 62.7563L173.872 3.62449L167.896 3.09471ZM165.371 59.5037L157.263 60.2408L157.806 66.2162L165.914 65.4791L165.371 59.5037ZM160.526 63.0024L159.461 48.9156L153.478 49.3678L154.543 63.4546L160.526 63.0024ZM156.47 46.1417H155.814V52.1417H156.47V46.1417ZM153.056 47.9618C151.102 52.5303 148.685 55.7314 145.916 57.7911C143.179 59.8265 139.918 60.8837 135.995 60.8837V66.8837C141.08 66.8837 145.627 65.4839 149.497 62.6053C153.334 59.7511 156.323 55.5811 158.573 50.3216L153.056 47.9618ZM146.232 23.2916C143.839 23.2916 141.604 23.7448 139.65 24.7968L142.495 30.0796C143.38 29.6028 144.585 29.2916 146.232 29.2916V23.2916ZM138.128 26.8656C137.325 30.9946 136.926 35.2544 136.926 39.6413H142.926C142.926 35.6198 143.291 31.7442 144.017 28.0108L138.128 26.8656ZM136.926 39.6413C136.926 48.319 137.446 54.7043 138.744 58.275L144.383 56.2246C143.498 53.7893 142.926 48.4356 142.926 39.6413H136.926ZM142.047 60.2106C145.722 59.6107 149.111 57.1283 152.246 53.5872L147.753 49.6102C144.991 52.7303 142.757 54.0154 141.08 54.289L142.047 60.2106ZM152.257 53.5742C154.162 51.3975 155.581 48.48 156.636 45.0212L150.897 43.2704C149.987 46.2544 148.895 48.3055 147.742 49.6232L152.257 53.5742ZM156.622 45.0654C157.774 41.4885 158.323 37.4832 158.323 33.0893H152.323C152.323 36.9946 151.834 40.3603 150.911 43.2262L156.622 45.0654ZM158.323 33.0893C158.323 32.1708 158.263 30.809 158.153 29.0529L152.165 29.4271C152.274 31.1654 152.323 32.3698 152.323 33.0893H158.323ZM157.033 26.8974C153.985 24.4589 150.328 23.2916 146.232 23.2916V29.2916C149.125 29.2916 151.419 30.0899 153.285 31.5826L157.033 26.8974ZM173.519 60.8534L171.267 62.8353L171.309 62.8831L171.353 62.9291L173.519 60.8534ZM173.519 50.4521L171.311 48.4209L171.307 48.4249L173.519 50.4521ZM185.067 50.4521L182.815 52.434L182.857 52.4818L182.901 52.5278L185.067 50.4521ZM185.067 60.8534L182.859 58.8222L182.855 58.8262L185.067 60.8534ZM175.771 58.8715C175.132 58.1459 174.717 57.1437 174.717 55.6118H168.717C168.717 58.3387 169.503 60.8309 171.267 62.8353L175.771 58.8715ZM174.717 55.6118C174.717 54.076 175.133 53.1306 175.73 52.4793L171.307 48.4249C169.502 50.3944 168.717 52.8888 168.717 55.6118H174.717ZM175.727 52.4833C176.212 51.9559 177.197 51.4046 179.334 51.4046V45.4046C176.229 45.4046 173.338 46.2183 171.311 48.4209L175.727 52.4833ZM179.334 51.4046C181.482 51.4046 182.398 51.9604 182.815 52.434L187.319 48.4702C185.333 46.2138 182.427 45.4046 179.334 45.4046V51.4046ZM182.901 52.5278C183.53 53.1841 183.95 54.1125 183.95 55.6118H189.95C189.95 52.8523 189.115 50.341 187.233 48.3764L182.901 52.5278ZM183.95 55.6118C183.95 57.1081 183.53 58.093 182.859 58.8222L187.275 62.8846C189.115 60.8838 189.95 58.3743 189.95 55.6118H183.95ZM182.855 58.8262C182.447 59.272 181.516 59.819 179.334 59.819V65.819C182.393 65.819 185.284 65.0556 187.278 62.8806L182.855 58.8262ZM179.334 59.819C177.164 59.819 176.163 59.277 175.685 58.7777L171.353 62.9291C173.386 65.0506 176.262 65.819 179.334 65.819V59.819Z" fill="#1F6BFF" mask="url(#path-1-outside-1_67_6)"/>
</svg>
